<svg width="97" height="106" viewBox="0 0 97 106" fill="none" xmlns="http://www.w3.org/2000/svg">
<g filter="url(#filter0_d_219_787)">
<path fill-rule="evenodd" clip-rule="evenodd" d="M84.6239 62.5721C95.2906 56.4137 95.2906 41.0177 84.6239 34.8593L28 2.16746C17.3333 -3.99094 4 3.70706 4 16.0239V81.4076C4 93.7244 17.3333 101.422 28 95.264L84.6239 62.5721ZM25.3292 40.3216L25.8549 39.1249C26.7925 36.9904 28.4803 35.2904 30.5864 34.3612L32.2061 33.6465C33.082 33.2596 33.082 31.9952 32.2061 31.6082L30.6768 30.9327C28.5165 29.9791 26.7978 28.2167 25.8762 26.0093L25.3367 24.7153C24.961 23.8135 23.7063 23.8135 23.3296 24.7153L22.79 26.0093C21.8684 28.2167 20.1497 29.9791 17.9894 30.9327L16.4602 31.6082C15.5843 31.9952 15.5843 33.2596 16.4602 33.6465L18.0799 34.3612C20.187 35.2904 21.8748 36.9904 22.8124 39.1249L23.3381 40.3216C23.7223 41.198 24.944 41.198 25.3292 40.3216ZM58.0262 62.7601L56.1564 67.0143C55.4381 68.6498 53.1596 68.6498 52.4412 67.0143L50.5714 62.7601C48.907 58.9743 45.9123 55.9602 42.177 54.3131L37.0305 52.0433C35.3938 51.3223 35.3938 48.9574 37.0305 48.2353L42.0163 46.0363C45.8485 44.347 48.8963 41.2219 50.532 37.3061L52.4263 32.7728C53.1287 31.0908 55.469 31.0908 56.1724 32.7728L58.0667 37.3061C59.7024 41.2209 62.7513 44.3459 66.5825 46.0363L71.5683 48.2353C73.205 48.9563 73.205 51.3213 71.5683 52.0433L66.4218 54.3131C62.6854 55.9613 59.6907 58.9743 58.0262 62.7601ZM25.8475 73.1849L25.3218 74.3817C24.9365 75.2581 23.7148 75.2581 23.3307 74.3817L22.8049 73.1849C21.8674 71.0505 20.1796 69.3505 18.0724 68.4212L16.4527 67.7065C15.5769 67.3196 15.5769 66.0552 16.4527 65.6682L17.982 64.9927C20.1423 64.0391 21.861 62.2768 22.7826 60.0693L23.3222 58.7753C23.6989 57.8736 24.9536 57.8736 25.3292 58.7753L25.8688 60.0693C26.7904 62.2768 28.5091 64.0391 30.6694 64.9927L32.1987 65.6682C33.0745 66.0552 33.0745 67.3196 32.1987 67.7065L30.5789 68.4212C28.4729 69.3505 26.7851 71.0505 25.8475 73.1849Z" fill="white"/>
<path d="M26.7705 39.527L26.7705 39.5271L26.2448 40.7238L26.2447 40.724C25.5098 42.3959 23.1574 42.3987 22.4225 40.7238L26.7705 39.527ZM26.7705 39.527C27.609 37.618 29.1161 36.1029 30.9901 35.2761L32.6098 34.5614L32.6102 34.5612C34.2806 33.8233 34.2806 31.4315 32.6102 30.6935L32.6102 30.6935L31.0809 30.018L31.0807 30.0178C29.1581 29.1692 27.6233 27.5983 26.799 25.6241L26.2598 24.3308C25.5418 22.6072 23.1254 22.6098 22.4069 24.3298L22.4066 24.3305L21.8672 25.6241C21.043 27.5983 19.5082 29.1692 17.5856 30.0178L17.5853 30.018L16.0561 30.6935L16.056 30.6935C14.3857 31.4315 14.3857 33.8233 16.056 34.5612L16.0565 34.5614L17.6762 35.2761L17.6764 35.2761C19.5513 36.103 21.0583 37.6181 21.8968 39.527L21.8968 39.5271L22.4222 40.7231L26.7705 39.527ZM41.7735 55.2281L41.7735 55.2281L36.6274 52.9585C34.1943 51.8867 34.1956 48.393 36.6269 47.3204L36.627 47.3203L41.6128 45.1214L41.6129 45.1213C45.207 43.5369 48.0709 40.6035 49.6093 36.9206L49.6093 36.9205L51.5036 32.3875C51.5036 32.3874 51.5036 32.3873 51.5037 32.3872C52.5486 29.8853 56.0493 29.8868 57.095 32.387L57.0951 32.3873L58.9894 36.9205L58.9894 36.9205C60.5277 40.6022 63.3927 43.5358 66.986 45.1214L41.7735 55.2281ZM41.7735 55.2281C45.2768 56.7729 48.0906 59.6022 49.656 63.1626L51.5257 67.4164C51.5257 67.4165 51.5257 67.4166 51.5258 67.4167C52.5943 69.849 56.0034 69.849 57.0719 67.4166C57.0719 67.4166 57.072 67.4165 57.072 67.4164L58.9417 63.1626C60.5069 59.6024 63.3208 56.774 66.8254 55.2281L71.9718 52.9583L71.9719 52.9583C74.4031 51.8857 74.4046 48.3924 71.9718 47.3203C71.9717 47.3203 71.9715 47.3202 71.9714 47.3202L66.9862 45.1215L41.7735 55.2281ZM26.2372 74.7841L26.2373 74.7839L26.7631 73.5871L25.8475 73.1849L26.7631 73.5871C27.6016 71.6781 29.1087 70.1629 30.9826 69.3361L32.6024 68.6214L32.6028 68.6212C34.2731 67.8833 34.2731 65.4915 32.6028 64.7535L32.1987 65.6682L32.6028 64.7535L31.0735 64.078L31.0732 64.0779C29.1506 63.2292 27.6158 61.6583 26.7916 59.6841L26.2523 58.3908C25.5343 56.6672 23.118 56.6699 22.3994 58.3899L22.3992 58.3905L21.8598 59.6841C21.0355 61.6583 19.5007 63.2292 17.5782 64.0779L17.5779 64.078L16.0486 64.7535L16.4527 65.6682L16.0486 64.7535C14.3782 65.4915 14.3782 67.8833 16.0486 68.6212L16.049 68.6214L17.6687 69.3361L17.6689 69.3362C19.5438 70.163 21.0509 71.6781 21.8894 73.5871L22.8049 73.1849L21.8894 73.5871L22.4148 74.7831C22.4148 74.7833 22.4149 74.7834 22.415 74.7835C22.415 74.7836 22.4151 74.7838 22.4151 74.7839C23.1499 76.4587 25.5023 76.4559 26.2372 74.7841ZM84.1239 35.7253C94.1239 41.4988 94.1239 55.9326 84.1239 61.7061L27.5 94.3979C17.5 100.171 5 92.9546 5 81.4076V16.0239C5 4.47686 17.5 -2.74001 27.5 3.03349L84.1239 35.7253Z" stroke="url(#paint0_radial_219_787)" stroke-width="2" stroke-linejoin="round"/>
</g>
<defs>
<filter id="filter0_d_219_787" x="0" y="0" width="96.6239" height="105.431" filterUnits="userSpaceOnUse" color-interpolation-filters="sRGB">
<feFlood flood-opacity="0" result="BackgroundImageFix"/>
<feColorMatrix in="SourceAlpha" type="matrix" values="0 0 0 0 0 0 0 0 0 0 0 0 0 0 0 0 0 0 127 0" result="hardAlpha"/>
<feOffset dy="4"/>
<feGaussianBlur stdDeviation="2"/>
<feComposite in2="hardAlpha" operator="out"/>
<feColorMatrix type="matrix" values="0 0 0 0 0 0 0 0 0 0 0 0 0 0 0 0 0 0 0.25 0"/>
<feBlend mode="normal" in2="BackgroundImageFix" result="effect1_dropShadow_219_787"/>
<feBlend mode="normal" in="SourceGraphic" in2="effect1_dropShadow_219_787" result="shape"/>
</filter>
<radialGradient id="paint0_radial_219_787" cx="0" cy="0" r="1" gradientUnits="userSpaceOnUse" gradientTransform="translate(42.1597 18.4506) rotate(-6.04536) scale(87.0834 73.3502)">
<stop stop-color="#1BA1E3"/>
<stop offset="0.3" stop-color="#5489D6"/>
<stop offset="0.545" stop-color="#9B72CB"/>
<stop offset="0.825" stop-color="#D96570"/>
<stop offset="1" stop-color="#F49C46"/>
</radialGradient>
</defs>
</svg>
