<svg width="139" height="38" viewBox="0 0 139 38" fill="none" xmlns="http://www.w3.org/2000/svg">
<g id="Logo White">
<g id="Sleep Deprived">
<path d="M41.7187 21.3097C40.6867 21.3097 39.7939 21.0516 39.0405 20.5356C38.2974 20.0098 37.771 19.26 37.4614 18.2863L39.7371 17.4392C39.8713 17.9358 40.0932 18.3447 40.4028 18.666C40.7125 18.9874 41.1511 19.148 41.7187 19.148C41.9045 19.148 42.0799 19.1286 42.2451 19.0896C42.4205 19.0507 42.5702 18.9922 42.694 18.9143C42.8282 18.8267 42.9366 18.7196 43.0191 18.593C43.1017 18.4664 43.143 18.3204 43.143 18.1548C43.143 17.9893 43.1069 17.8384 43.0346 17.7021C42.9727 17.556 42.8643 17.4246 42.7095 17.3077C42.5547 17.1811 42.3483 17.0594 42.0903 16.9426C41.8323 16.816 41.5071 16.6845 41.115 16.5482L40.4338 16.3145C40.1448 16.2172 39.8455 16.0857 39.5359 15.9202C39.2366 15.7449 38.9631 15.5356 38.7154 15.2921C38.4677 15.0487 38.2664 14.7712 38.1116 14.4596C37.9568 14.1383 37.8794 13.7829 37.8794 13.3934C37.8794 12.9747 37.9671 12.5804 38.1426 12.2103C38.318 11.8403 38.5657 11.5239 38.8857 11.261C39.2056 10.9883 39.5927 10.7741 40.0468 10.6183C40.5009 10.4625 41.0014 10.3846 41.5484 10.3846C42.1264 10.3846 42.6218 10.4577 43.0346 10.6037C43.4474 10.74 43.7983 10.9202 44.0873 11.1441C44.3763 11.3584 44.6034 11.6018 44.7685 11.8744C44.9439 12.1471 45.0781 12.41 45.171 12.6631L43.0811 13.4956C42.9675 13.1841 42.7869 12.9358 42.5392 12.7508C42.2915 12.556 41.9716 12.4586 41.5794 12.4586C41.1666 12.4586 40.8363 12.5414 40.5886 12.7069C40.3512 12.8627 40.2325 13.0672 40.2325 13.3204C40.2325 13.5833 40.3564 13.817 40.6041 14.0215C40.8518 14.2259 41.2904 14.4304 41.92 14.6349L42.6011 14.854C43.5403 15.1558 44.2679 15.5599 44.784 16.0662C45.3 16.5726 45.558 17.2542 45.558 18.111C45.558 18.6563 45.4393 19.1286 45.202 19.5278C44.9749 19.927 44.6756 20.2581 44.3041 20.521C43.9428 20.7839 43.53 20.9786 43.0656 21.1052C42.6115 21.2415 42.1625 21.3097 41.7187 21.3097Z" fill="white"/>
<path d="M46.4085 21.076V10.6183H48.7307V21.076H46.4085Z" fill="white"/>
<path d="M57.1034 19.3379C56.7319 19.9513 56.2416 20.4333 55.6327 20.7839C55.0341 21.1344 54.3065 21.3097 53.4499 21.3097C52.8616 21.3097 52.3146 21.2172 51.8089 21.0322C51.3135 20.8374 50.88 20.5696 50.5085 20.2289C50.1369 19.8881 49.8479 19.4888 49.6415 19.0312C49.4351 18.5638 49.3319 18.0526 49.3319 17.4976C49.3319 16.9815 49.4351 16.4947 49.6415 16.037C49.8479 15.5696 50.1318 15.1656 50.493 14.8248C50.8645 14.4742 51.2928 14.1967 51.7779 13.9922C52.2733 13.7878 52.81 13.6855 53.3879 13.6855C54.0175 13.6855 54.5697 13.7829 55.0444 13.9776C55.5295 14.1724 55.932 14.4401 56.2519 14.7809C56.5719 15.112 56.8144 15.5064 56.9796 15.964C57.1447 16.4119 57.2273 16.8939 57.2273 17.41C57.2273 17.4879 57.2221 17.5658 57.2118 17.6437C57.2118 17.7215 57.2066 17.7897 57.1963 17.8481C57.186 17.9163 57.1808 17.9796 57.1808 18.038H51.5921C51.7057 18.5054 51.9379 18.8462 52.2888 19.0604C52.6397 19.2746 53.0319 19.3817 53.4654 19.3817C53.8988 19.3817 54.2549 19.2941 54.5335 19.1188C54.8225 18.9436 55.0496 18.7196 55.2147 18.447L57.1034 19.3379ZM55.0444 16.5482C55.0238 16.4314 54.9722 16.3048 54.8896 16.1685C54.8174 16.0322 54.709 15.9104 54.5645 15.8033C54.4303 15.6865 54.26 15.594 54.0536 15.5258C53.8575 15.4479 53.6356 15.409 53.3879 15.409C53.0267 15.409 52.6913 15.5064 52.3817 15.7011C52.0721 15.8958 51.845 16.1782 51.7005 16.5482H55.0444Z" fill="white"/>
<path d="M65.3283 19.3379C64.9568 19.9513 64.4666 20.4333 63.8576 20.7839C63.259 21.1344 62.5314 21.3097 61.6748 21.3097C61.0865 21.3097 60.5395 21.2172 60.0338 21.0322C59.5384 20.8374 59.1049 20.5696 58.7334 20.2289C58.3618 19.8881 58.0729 19.4888 57.8665 19.0312C57.66 18.5638 57.5568 18.0526 57.5568 17.4976C57.5568 16.9815 57.66 16.4947 57.8665 16.037C58.0729 15.5696 58.3567 15.1656 58.7179 14.8248C59.0895 14.4742 59.5178 14.1967 60.0028 13.9922C60.4982 13.7878 61.0349 13.6855 61.6129 13.6855C62.2424 13.6855 62.7946 13.7829 63.2694 13.9776C63.7544 14.1724 64.1569 14.4401 64.4769 14.7809C64.7968 15.112 65.0394 15.5064 65.2045 15.964C65.3696 16.4119 65.4522 16.8939 65.4522 17.41C65.4522 17.4879 65.447 17.5658 65.4367 17.6437C65.4367 17.7215 65.4315 17.7897 65.4212 17.8481C65.4109 17.9163 65.4057 17.9796 65.4057 18.038H59.8171C59.9306 18.5054 60.1628 18.8462 60.5137 19.0604C60.8646 19.2746 61.2568 19.3817 61.6903 19.3817C62.1238 19.3817 62.4798 19.2941 62.7585 19.1188C63.0475 18.9436 63.2745 18.7196 63.4396 18.447L65.3283 19.3379ZM63.2694 16.5482C63.2487 16.4314 63.1971 16.3048 63.1145 16.1685C63.0423 16.0322 62.9339 15.9104 62.7894 15.8033C62.6553 15.6865 62.485 15.594 62.2786 15.5258C62.0825 15.4479 61.8606 15.409 61.6129 15.409C61.2517 15.409 60.9162 15.5064 60.6066 15.7011C60.297 15.8958 60.0699 16.1782 59.9254 16.5482H63.2694Z" fill="white"/>
<path d="M68.2451 14.7079H68.3999C68.5753 14.4255 68.8437 14.187 69.2049 13.9922C69.5764 13.7878 70.0409 13.6855 70.5982 13.6855C71.0833 13.6855 71.5477 13.778 71.9915 13.963C72.4353 14.148 72.8223 14.4109 73.1526 14.7517C73.4932 15.0828 73.7615 15.482 73.9576 15.9494C74.1537 16.4168 74.2517 16.9328 74.2517 17.4976C74.2517 18.0623 74.1537 18.5784 73.9576 19.0458C73.7615 19.5132 73.4932 19.9173 73.1526 20.2581C72.8223 20.5891 72.4353 20.8472 71.9915 21.0322C71.5477 21.2172 71.0833 21.3097 70.5982 21.3097C70.0409 21.3097 69.5764 21.2123 69.2049 21.0176C68.8437 20.8131 68.5753 20.5696 68.3999 20.2873H68.2451L68.3999 21.3097V24.2308H66.0777V13.9192H68.2451V14.7079ZM70.0873 15.7303C69.8396 15.7303 69.6022 15.7741 69.3752 15.8618C69.1585 15.9397 68.9624 16.0565 68.7869 16.2123C68.6218 16.3681 68.4876 16.5531 68.3844 16.7673C68.2915 16.9815 68.2451 17.225 68.2451 17.4976C68.2451 17.7702 68.2915 18.0185 68.3844 18.2425C68.4876 18.4567 68.6218 18.6417 68.7869 18.7975C68.9624 18.9436 69.1585 19.0604 69.3752 19.148C69.6022 19.2259 69.8396 19.2649 70.0873 19.2649C70.335 19.2649 70.5672 19.2259 70.784 19.148C71.011 19.0604 71.2071 18.9436 71.3722 18.7975C71.5477 18.6417 71.6819 18.4567 71.7748 18.2425C71.878 18.0185 71.9296 17.7702 71.9296 17.4976C71.9296 17.225 71.878 16.9815 71.7748 16.7673C71.6819 16.5531 71.5477 16.3681 71.3722 16.2123C71.2071 16.0565 71.011 15.9397 70.784 15.8618C70.5672 15.7741 70.335 15.7303 70.0873 15.7303Z" fill="white"/>
<path d="M77.9691 10.6183H81.8858C82.7734 10.6183 83.5733 10.7449 84.2854 10.9981C84.9975 11.2512 85.6013 11.6066 86.0967 12.0643C86.5921 12.5219 86.9688 13.0721 87.2268 13.7147C87.4951 14.3574 87.6293 15.0682 87.6293 15.8472C87.6293 16.6261 87.4951 17.3369 87.2268 17.9796C86.9688 18.6222 86.5921 19.1724 86.0967 19.63C85.6013 20.0877 84.9975 20.4431 84.2854 20.6962C83.5733 20.9494 82.7734 21.076 81.8858 21.076H77.9691V10.6183ZM81.762 18.9143C82.3606 18.9143 82.8766 18.8413 83.3101 18.6953C83.7436 18.5395 84.0996 18.3252 84.3783 18.0526C84.6673 17.78 84.8788 17.4586 85.013 17.0886C85.1472 16.7089 85.2143 16.2951 85.2143 15.8472C85.2143 15.3992 85.1472 14.9903 85.013 14.6203C84.8788 14.2405 84.6673 13.9143 84.3783 13.6417C84.0996 13.3691 83.7436 13.1597 83.3101 13.0137C82.8766 12.8579 82.3606 12.78 81.762 12.78H80.3842V18.9143H81.762Z" fill="white"/>
<path d="M95.5672 19.3379C95.1957 19.9513 94.7055 20.4333 94.0965 20.7839C93.4979 21.1344 92.7703 21.3097 91.9137 21.3097C91.3254 21.3097 90.7784 21.2172 90.2727 21.0322C89.7773 20.8374 89.3438 20.5696 88.9723 20.2289C88.6008 19.8881 88.3118 19.4888 88.1054 19.0312C87.8989 18.5638 87.7957 18.0526 87.7957 17.4976C87.7957 16.9815 87.8989 16.4947 88.1054 16.037C88.3118 15.5696 88.5956 15.1656 88.9568 14.8248C89.3284 14.4742 89.7567 14.1967 90.2417 13.9922C90.7371 13.7878 91.2738 13.6855 91.8518 13.6855C92.4813 13.6855 93.0335 13.7829 93.5083 13.9776C93.9933 14.1724 94.3958 14.4401 94.7158 14.7809C95.0357 15.112 95.2783 15.5064 95.4434 15.964C95.6085 16.4119 95.6911 16.8939 95.6911 17.41C95.6911 17.4879 95.6859 17.5658 95.6756 17.6437C95.6756 17.7215 95.6704 17.7897 95.6601 17.8481C95.6498 17.9163 95.6446 17.9796 95.6446 18.038H90.056C90.1695 18.5054 90.4017 18.8462 90.7526 19.0604C91.1035 19.2746 91.4957 19.3817 91.9292 19.3817C92.3627 19.3817 92.7187 19.2941 92.9974 19.1188C93.2864 18.9436 93.5134 18.7196 93.6785 18.447L95.5672 19.3379ZM93.5083 16.5482C93.4876 16.4314 93.436 16.3048 93.3534 16.1685C93.2812 16.0322 93.1728 15.9104 93.0283 15.8033C92.8942 15.6865 92.7239 15.594 92.5175 15.5258C92.3214 15.4479 92.0995 15.409 91.8518 15.409C91.4906 15.409 91.1551 15.5064 90.8455 15.7011C90.5359 15.8958 90.3088 16.1782 90.1643 16.5482H93.5083Z" fill="white"/>
<path d="M98.484 14.7079H98.6388C98.8142 14.4255 99.0826 14.187 99.4438 13.9922C99.8153 13.7878 100.28 13.6855 100.837 13.6855C101.322 13.6855 101.787 13.778 102.23 13.963C102.674 14.148 103.061 14.4109 103.391 14.7517C103.732 15.0828 104 15.482 104.196 15.9494C104.393 16.4168 104.491 16.9328 104.491 17.4976C104.491 18.0623 104.393 18.5784 104.196 19.0458C104 19.5132 103.732 19.9173 103.391 20.2581C103.061 20.5891 102.674 20.8472 102.23 21.0322C101.787 21.2172 101.322 21.3097 100.837 21.3097C100.28 21.3097 99.8153 21.2123 99.4438 21.0176C99.0826 20.8131 98.8142 20.5696 98.6388 20.2873H98.484L98.6388 21.3097V24.2308H96.3166V13.9192H98.484V14.7079ZM100.326 15.7303C100.079 15.7303 99.8411 15.7741 99.6141 15.8618C99.3974 15.9397 99.2013 16.0565 99.0258 16.2123C98.8607 16.3681 98.7265 16.5531 98.6233 16.7673C98.5304 16.9815 98.484 17.225 98.484 17.4976C98.484 17.7702 98.5304 18.0185 98.6233 18.2425C98.7265 18.4567 98.8607 18.6417 99.0258 18.7975C99.2013 18.9436 99.3974 19.0604 99.6141 19.148C99.8411 19.2259 100.079 19.2649 100.326 19.2649C100.574 19.2649 100.806 19.2259 101.023 19.148C101.25 19.0604 101.446 18.9436 101.611 18.7975C101.787 18.6417 101.921 18.4567 102.014 18.2425C102.117 18.0185 102.168 17.7702 102.168 17.4976C102.168 17.225 102.117 16.9815 102.014 16.7673C101.921 16.5531 101.787 16.3681 101.611 16.2123C101.446 16.0565 101.25 15.9397 101.023 15.8618C100.806 15.7741 100.574 15.7303 100.326 15.7303Z" fill="white"/>
<path d="M105.102 13.9192H107.27V14.8248H107.425C107.631 14.5132 107.925 14.2503 108.307 14.0361C108.689 13.8218 109.112 13.7147 109.576 13.7147C109.855 13.7147 110.098 13.7488 110.304 13.817C110.51 13.8754 110.681 13.9436 110.815 14.0215L110.211 15.9494C110.077 15.8812 109.932 15.8277 109.778 15.7887C109.633 15.7498 109.442 15.7303 109.205 15.7303C108.627 15.7303 108.183 15.9202 107.873 16.2999C107.574 16.6797 107.425 17.1763 107.425 17.7897V21.076H105.102V13.9192Z" fill="white"/>
<path d="M112.405 13.1305C112.199 13.1305 112.008 13.0964 111.832 13.0283C111.657 12.9504 111.502 12.853 111.368 12.7362C111.244 12.6096 111.141 12.4635 111.058 12.298C110.986 12.1325 110.95 11.9523 110.95 11.7576C110.95 11.5726 110.986 11.3973 111.058 11.2318C111.141 11.0565 111.244 10.9104 111.368 10.7936C111.502 10.667 111.657 10.5696 111.832 10.5015C112.008 10.4236 112.199 10.3846 112.405 10.3846C112.601 10.3846 112.787 10.4236 112.962 10.5015C113.148 10.5696 113.303 10.667 113.427 10.7936C113.561 10.9104 113.664 11.0565 113.736 11.2318C113.819 11.3973 113.86 11.5726 113.86 11.7576C113.86 11.9523 113.819 12.1325 113.736 12.298C113.664 12.4635 113.561 12.6096 113.427 12.7362C113.303 12.853 113.148 12.9504 112.962 13.0283C112.787 13.0964 112.601 13.1305 112.405 13.1305ZM111.244 21.076V13.9192H113.566V21.076H111.244Z" fill="white"/>
<path d="M114.004 13.9192H116.698L118.401 17.9796H118.556L120.29 13.9192H122.953L119.609 21.076H117.317L114.004 13.9192Z" fill="white"/>
<path d="M130.372 19.3379C130.001 19.9513 129.511 20.4333 128.902 20.7839C128.303 21.1344 127.576 21.3097 126.719 21.3097C126.131 21.3097 125.584 21.2172 125.078 21.0322C124.583 20.8374 124.149 20.5696 123.778 20.2289C123.406 19.8881 123.117 19.4888 122.911 19.0312C122.704 18.5638 122.601 18.0526 122.601 17.4976C122.601 16.9815 122.704 16.4947 122.911 16.037C123.117 15.5696 123.401 15.1656 123.762 14.8248C124.134 14.4742 124.562 14.1967 125.047 13.9922C125.542 13.7878 126.079 13.6855 126.657 13.6855C127.287 13.6855 127.839 13.7829 128.313 13.9776C128.799 14.1724 129.201 14.4401 129.521 14.7809C129.841 15.112 130.083 15.5064 130.249 15.964C130.414 16.4119 130.496 16.8939 130.496 17.41C130.496 17.4879 130.491 17.5658 130.481 17.6437C130.481 17.7215 130.476 17.7897 130.465 17.8481C130.455 17.9163 130.45 17.9796 130.45 18.038H124.861C124.975 18.5054 125.207 18.8462 125.558 19.0604C125.909 19.2746 126.301 19.3817 126.734 19.3817C127.168 19.3817 127.524 19.2941 127.803 19.1188C128.092 18.9436 128.319 18.7196 128.484 18.447L130.372 19.3379ZM128.313 16.5482C128.293 16.4314 128.241 16.3048 128.159 16.1685C128.086 16.0322 127.978 15.9104 127.834 15.8033C127.699 15.6865 127.529 15.594 127.323 15.5258C127.127 15.4479 126.905 15.409 126.657 15.409C126.296 15.409 125.96 15.5064 125.651 15.7011C125.341 15.8958 125.114 16.1782 124.97 16.5482H128.313Z" fill="white"/>
<path d="M136.833 20.2873H136.678C136.502 20.5696 136.229 20.8131 135.857 21.0176C135.496 21.2123 135.037 21.3097 134.479 21.3097C133.994 21.3097 133.53 21.2172 133.086 21.0322C132.642 20.8472 132.25 20.5891 131.91 20.2581C131.579 19.9173 131.316 19.5132 131.12 19.0458C130.924 18.5784 130.826 18.0623 130.826 17.4976C130.826 16.9328 130.924 16.4168 131.12 15.9494C131.316 15.482 131.579 15.0828 131.91 14.7517C132.25 14.4109 132.642 14.148 133.086 13.963C133.53 13.778 133.994 13.6855 134.479 13.6855C135.037 13.6855 135.496 13.7878 135.857 13.9922C136.229 14.187 136.502 14.4255 136.678 14.7079H136.833L136.678 13.6855V10.6183H139V21.076H136.833V20.2873ZM134.99 19.2649C135.238 19.2649 135.47 19.2259 135.687 19.148C135.914 19.0604 136.11 18.9436 136.275 18.7975C136.451 18.6417 136.585 18.4567 136.678 18.2425C136.781 18.0185 136.833 17.7702 136.833 17.4976C136.833 17.225 136.781 16.9815 136.678 16.7673C136.585 16.5531 136.451 16.3681 136.275 16.2123C136.11 16.0565 135.914 15.9397 135.687 15.8618C135.47 15.7741 135.238 15.7303 134.99 15.7303C134.743 15.7303 134.505 15.7741 134.278 15.8618C134.061 15.9397 133.865 16.0565 133.69 16.2123C133.525 16.3681 133.391 16.5531 133.287 16.7673C133.194 16.9815 133.148 17.225 133.148 17.4976C133.148 17.7702 133.194 18.0185 133.287 18.2425C133.391 18.4567 133.525 18.6417 133.69 18.7975C133.865 18.9436 134.061 19.0604 134.278 19.148C134.505 19.2259 134.743 19.2649 134.99 19.2649Z" fill="white"/>
</g>
<g id="Exclude" filter="url(#filter0_d_217_597)">
<path fill-rule="evenodd" clip-rule="evenodd" d="M29.1925 19.2665C32.5256 17.3703 32.5256 12.6297 29.1925 10.7335L11.4993 0.667381C8.16627 -1.22885 4 1.14144 4 4.93389V25.0661C4 28.8586 8.16626 31.2288 11.4993 29.3326L29.1925 19.2665ZM10.6647 12.4154L10.829 12.0469C11.122 11.3897 11.6494 10.8662 12.3074 10.5801L12.8136 10.3601C13.0872 10.2409 13.0872 9.85159 12.8136 9.73245L12.3357 9.52445C11.6607 9.23083 11.1236 8.68819 10.8357 8.0085L10.6671 7.61007C10.5497 7.3324 10.1576 7.3324 10.0399 7.61007L9.87132 8.0085C9.58335 8.68819 9.04631 9.23083 8.37127 9.52445L7.89342 9.73245C7.61975 9.85159 7.61975 10.2409 7.89342 10.3601L8.39954 10.5801C9.05795 10.8662 9.58534 11.3897 9.8783 12.0469L10.0426 12.4154C10.1626 12.6852 10.5444 12.6852 10.6647 12.4154ZM20.8816 19.3244L20.2973 20.6343C20.0729 21.1379 19.3609 21.1379 19.1364 20.6343L18.5522 19.3244C18.0321 18.1587 17.0963 17.2307 15.9292 16.7235L14.321 16.0246C13.8096 15.8026 13.8096 15.0744 14.321 14.8521L15.8789 14.175C17.0764 13.6548 18.0288 12.6926 18.5399 11.4869L19.1318 10.091C19.3512 9.57314 20.0825 9.57314 20.3023 10.091L20.8942 11.4869C21.4053 12.6923 22.358 13.6545 23.5551 14.175L25.1131 14.8521C25.6245 15.0741 25.6245 15.8023 25.1131 16.0246L23.5049 16.7235C22.3374 17.231 21.4017 18.1587 20.8816 19.3244ZM10.8267 22.5343L10.6624 22.9028C10.542 23.1726 10.1603 23.1726 10.0402 22.9028L9.87598 22.5343C9.58302 21.8771 9.05562 21.3536 8.39721 21.0675L7.8911 20.8474C7.61743 20.7283 7.61743 20.339 7.8911 20.2198L8.36895 20.0118C9.04398 19.7182 9.58102 19.1756 9.869 18.4959L10.0376 18.0974C10.1553 17.8198 10.5474 17.8198 10.6647 18.0974L10.8333 18.4959C11.1213 19.1756 11.6583 19.7182 12.3334 20.0118L12.8112 20.2198C13.0849 20.339 13.0849 20.7283 12.8112 20.8474L12.3051 21.0675C11.647 21.3536 11.1196 21.8771 10.8267 22.5343Z" fill="white"/>
<path d="M11.1715 12.1996L11.1715 12.1996L11.0072 12.5681L11.0072 12.5682C10.7549 13.1338 9.95245 13.1348 9.70007 12.5681L11.1715 12.1996ZM11.1715 12.1996C11.4265 11.6276 11.8852 11.1726 12.457 10.924L12.9631 10.704L12.9632 10.7039C13.5373 10.454 13.5373 9.63855 12.9632 9.38862L12.9632 9.38862L12.4854 9.18061L12.4853 9.18057C11.8986 8.9254 11.4315 8.45362 11.1809 7.86221L11.0125 7.46405C10.7658 6.88064 9.94143 6.88162 9.69466 7.4637L9.69456 7.46393L9.52603 7.86221C9.52601 7.86226 9.52599 7.86232 9.52597 7.86237C9.27538 8.45371 8.80829 8.92542 8.22169 9.18057L8.2216 9.18061L7.74375 9.38862L7.74374 9.38862C7.16964 9.63855 7.16964 10.454 7.74374 10.7039L7.7439 10.704L8.25001 10.924L8.25007 10.924C8.82215 11.1726 9.28086 11.6277 9.53579 12.1996L9.5358 12.1996L9.69995 12.5678L11.1715 12.1996ZM15.7797 17.0674L15.7797 17.0674L14.1717 16.3686C13.3592 16.0159 13.3597 14.8611 14.1715 14.5082L14.1716 14.5082L15.7295 13.8311L15.7295 13.8311C16.8384 13.3493 17.7209 12.458 18.1946 11.3405L18.1946 11.3405L18.7865 9.94472C19.1353 9.12168 20.2985 9.1222 20.6475 9.94453L20.6475 9.94464L21.2395 11.3405L21.2395 11.3405C21.7131 12.4576 22.5959 13.349 23.7046 13.8311C23.7046 13.8311 23.7046 13.8311 23.7047 13.8311L25.2624 14.5081C26.0749 14.8608 26.0744 16.0156 25.2626 16.3685L25.2625 16.3685L23.6544 17.0674C22.5731 17.5374 21.7061 18.3968 21.224 19.4772L15.7797 17.0674ZM15.7797 17.0674C16.8606 17.5371 17.7277 18.3968 18.2097 19.4772L18.7939 20.787C18.7939 20.787 18.7939 20.787 18.7939 20.787C19.1506 21.5869 20.2832 21.5869 20.6398 20.787C20.6398 20.787 20.6398 20.787 20.6398 20.787L21.224 19.4772L15.7797 17.0674ZM11.0049 23.0555L11.0049 23.0555C10.7526 23.6212 9.95012 23.6222 9.69774 23.0555L11.0049 23.0555ZM11.0049 23.0555L11.1692 22.687L11.1692 22.687C11.4241 22.115 11.8829 21.66 12.4546 21.4114L12.9608 21.1913L12.9609 21.1913C13.535 20.9413 13.535 20.1259 12.9609 19.876L12.9609 19.876L12.4831 19.668L12.483 19.6679C11.8963 19.4128 11.4292 18.941 11.1786 18.3496L11.0101 17.9514C10.7635 17.368 9.9391 17.369 9.69234 17.9511L9.69224 17.9513L9.52371 18.3496C9.27314 18.941 8.80602 19.4128 8.21937 19.6679L8.21927 19.668L7.74143 19.876L7.74141 19.876C7.16732 20.1259 7.16732 20.9413 7.74141 21.1913L7.74157 21.1913L8.24769 21.4114L8.24775 21.4114C8.81982 21.66 9.27853 22.115 9.53347 22.687L9.53347 22.687L9.69762 23.0552L11.0049 23.0555ZM29.0071 11.0594C32.0874 12.8119 32.0874 17.1881 29.0071 18.9406L11.3138 29.0067C8.22257 30.7654 4.375 28.5615 4.375 25.0661V4.93389C4.375 1.43849 8.22257 -0.765369 11.3138 0.993324L29.0071 11.0594Z" stroke="url(#paint0_radial_217_597)" stroke-width="0.75" stroke-linejoin="round"/>
</g>
</g>
<defs>
<filter id="filter0_d_217_597" x="0" y="0" width="35.6924" height="38" filterUnits="userSpaceOnUse" color-interpolation-filters="sRGB">
<feFlood flood-opacity="0" result="BackgroundImageFix"/>
<feColorMatrix in="SourceAlpha" type="matrix" values="0 0 0 0 0 0 0 0 0 0 0 0 0 0 0 0 0 0 127 0" result="hardAlpha"/>
<feOffset dy="4"/>
<feGaussianBlur stdDeviation="2"/>
<feComposite in2="hardAlpha" operator="out"/>
<feColorMatrix type="matrix" values="0 0 0 0 0 0 0 0 0 0 0 0 0 0 0 0 0 0 0.25 0"/>
<feBlend mode="normal" in2="BackgroundImageFix" result="effect1_dropShadow_217_597"/>
<feBlend mode="normal" in="SourceGraphic" in2="effect1_dropShadow_217_597" result="shape"/>
</filter>
<radialGradient id="paint0_radial_217_597" cx="0" cy="0" r="1" gradientUnits="userSpaceOnUse" gradientTransform="translate(15.9238 5.68109) rotate(-5.95776) scale(27.2066 22.5888)">
<stop stop-color="#1BA1E3"/>
<stop offset="0.3" stop-color="#5489D6"/>
<stop offset="0.545" stop-color="#9B72CB"/>
<stop offset="0.825" stop-color="#D96570"/>
<stop offset="1" stop-color="#F49C46"/>
</radialGradient>
</defs>
</svg>
