<svg width="135" height="18" viewBox="0 0 135 18" fill="none" xmlns="http://www.w3.org/2000/svg">
<g id="LogoText">
<path d="M17.4957 9C17.4957 11.4783 16.6336 13.6043 14.9094 15.3783C13.2105 17.1261 11.1567 18 8.74785 18C6.31367 18 4.24715 17.1261 2.54829 15.3783C0.849429 13.6304 0 11.5043 0 9C0 6.52174 0.849429 4.4087 2.54829 2.66087C4.2725 0.886957 6.33902 0 8.74785 0C11.1313 0 13.1852 0.886957 14.9094 2.66087C16.6336 4.43478 17.4957 6.54783 17.4957 9ZM1.82564 9C1.82564 10.9304 2.51025 12.6 3.87948 14.0087C5.24871 15.4174 6.8715 16.1217 8.74785 16.1217C10.6496 16.1217 12.2724 15.4304 13.6162 14.0478C14.9855 12.6391 15.6701 10.9565 15.6701 9C15.6701 7.01739 14.9981 5.33478 13.6543 3.95217C12.3104 2.56957 10.6749 1.87826 8.74785 1.87826C6.84615 1.87826 5.21068 2.58261 3.84145 3.9913C2.49758 5.37391 1.82564 7.04348 1.82564 9ZM8.89999 13.6565C7.60683 13.6565 6.52919 13.213 5.66709 12.3261C4.80498 11.4391 4.37393 10.3304 4.37393 9C4.37393 7.69565 4.80498 6.6 5.66709 5.71304C6.55455 4.8 7.63218 4.34348 8.89999 4.34348C10.1171 4.34348 11.2201 4.85217 12.209 5.86957L10.9919 7.00435C10.4087 6.37826 9.71138 6.06522 8.89999 6.06522C8.13931 6.06522 7.48005 6.35217 6.92221 6.92609C6.38974 7.5 6.1235 8.1913 6.1235 9C6.1235 9.3913 6.19957 9.76957 6.3517 10.1348C6.50384 10.5 6.70669 10.813 6.96025 11.0739C7.21381 11.3348 7.5054 11.5435 7.83503 11.7C8.16466 11.8565 8.51965 11.9348 8.89999 11.9348C9.86352 11.9348 10.6242 11.5304 11.182 10.7217L12.4752 11.7783C11.5624 13.0304 10.3706 13.6565 8.89999 13.6565Z" fill="#A0A4AB"/>
<path d="M27.694 12.3521V13.4999H22.1664V12.2999L24.4104 9.96514C25.1626 9.17384 25.6824 8.58254 25.9698 8.19123C26.2572 7.79123 26.4008 7.37384 26.4008 6.93906C26.4008 6.54775 26.2529 6.21297 25.9571 5.93471C25.6613 5.65645 25.281 5.51732 24.8161 5.51732C24.4188 5.51732 24.0765 5.63906 23.7892 5.88254C23.5018 6.12602 23.3159 6.42167 23.2313 6.76949L22.1664 6.32602C22.3354 5.77819 22.6608 5.31732 23.1426 4.94341C23.6244 4.5608 24.1906 4.36949 24.8414 4.36949C25.6275 4.36949 26.2825 4.61732 26.8065 5.11297C27.3306 5.60863 27.5926 6.21732 27.5926 6.93906C27.5926 7.79993 27.1319 8.73036 26.2107 9.73036L23.6751 12.3521H27.694Z" fill="#A0A4AB"/>
<path d="M28.8037 9.03906C28.8037 7.68253 29.1291 6.56515 29.7799 5.68689C30.4307 4.80863 31.2675 4.36949 32.2902 4.36949C33.3129 4.36949 34.1496 4.81297 34.8004 5.69993C35.4513 6.57819 35.7767 7.69123 35.7767 9.03906C35.7767 10.3782 35.4513 11.4956 34.8004 12.3912C34.1496 13.2695 33.3129 13.7086 32.2902 13.7086C31.2675 13.7086 30.4307 13.2695 29.7799 12.3912C29.1291 11.4956 28.8037 10.3782 28.8037 9.03906ZM34.5849 9.03906C34.5849 8.01297 34.3736 7.16949 33.951 6.50862C33.5369 5.84775 32.9833 5.51732 32.2902 5.51732C31.5971 5.51732 31.0435 5.84775 30.6294 6.50862C30.2068 7.16949 29.9955 8.01297 29.9955 9.03906C29.9955 10.0651 30.2068 10.913 30.6294 11.5825C31.0435 12.2347 31.5971 12.5608 32.2902 12.5608C32.9833 12.5608 33.5369 12.2304 33.951 11.5695C34.3736 10.8999 34.5849 10.0564 34.5849 9.03906Z" fill="#A0A4AB"/>
<path d="M42.2416 12.3521V13.4999H36.7139V12.2999L38.958 9.96514C39.7102 9.17384 40.23 8.58254 40.5174 8.19123C40.8047 7.79123 40.9484 7.37384 40.9484 6.93906C40.9484 6.54775 40.8005 6.21297 40.5047 5.93471C40.2089 5.65645 39.8285 5.51732 39.3637 5.51732C38.9664 5.51732 38.6241 5.63906 38.3367 5.88254C38.0494 6.12602 37.8634 6.42167 37.7789 6.76949L36.7139 6.32602C36.883 5.77819 37.2084 5.31732 37.6902 4.94341C38.1719 4.5608 38.7382 4.36949 39.389 4.36949C40.175 4.36949 40.8301 4.61732 41.3541 5.11297C41.8781 5.60863 42.1401 6.21732 42.1401 6.93906C42.1401 7.79993 41.6795 8.73036 40.7582 9.73036L38.2226 12.3521H42.2416Z" fill="#A0A4AB"/>
<path d="M49.2212 10.7086C49.2212 11.5608 48.9339 12.2738 48.3591 12.8477C47.7844 13.4217 47.0744 13.7086 46.2292 13.7086C45.5531 13.7086 44.9403 13.4912 44.3909 13.0564C43.8415 12.6217 43.4781 12.0347 43.3006 11.2956L44.3402 10.8651C44.467 11.3869 44.6952 11.7999 45.0248 12.1043C45.3629 12.4086 45.7559 12.5608 46.2039 12.5608C46.7448 12.5608 47.1843 12.3912 47.5224 12.0521C47.8689 11.7043 48.0422 11.2608 48.0422 10.7217C48.0422 10.1738 47.8689 9.72601 47.5224 9.37819C47.1843 9.03036 46.749 8.85645 46.2165 8.85645C45.5995 8.85645 45.1135 9.11297 44.7586 9.62601L43.5795 9.10427L44.1373 4.57819H48.6888V5.72602H45.1135L44.7966 8.28254L44.8473 8.29558C45.2784 7.93906 45.8024 7.7608 46.4194 7.7608C47.197 7.7608 47.8562 8.0434 48.3972 8.60862C48.9465 9.17384 49.2212 9.87384 49.2212 10.7086Z" fill="#A0A4AB"/>
<path d="M58.7442 11.0086C58.7442 11.826 58.4526 12.4825 57.8694 12.9782C57.2778 13.4651 56.5594 13.7086 55.7142 13.7086C54.9619 13.7086 54.2985 13.4825 53.7237 13.0304C53.149 12.5782 52.7517 11.9608 52.532 11.1782L53.6477 10.7086C53.7237 10.9869 53.8294 11.2391 53.9646 11.4651C54.0998 11.6912 54.2562 11.8869 54.4337 12.0521C54.6196 12.2086 54.8225 12.3347 55.0422 12.4304C55.262 12.5173 55.4944 12.5608 55.7395 12.5608C56.272 12.5608 56.7073 12.4217 57.0454 12.1434C57.3834 11.8564 57.5525 11.4782 57.5525 11.0086C57.5525 10.6173 57.413 10.2825 57.1341 10.0043C56.8721 9.73471 56.3819 9.47384 55.6635 9.22167C54.9366 8.9521 54.4844 8.76949 54.3069 8.67384C53.3434 8.16949 52.8616 7.42602 52.8616 6.44341C52.8616 5.75645 53.1279 5.16949 53.6603 4.68254C54.2013 4.19558 54.8647 3.9521 55.6508 3.9521C56.3439 3.9521 56.9439 4.13471 57.4511 4.49993C57.9582 4.85645 58.2963 5.30428 58.4653 5.84341L57.375 6.31297C57.2736 5.96515 57.0707 5.67819 56.7665 5.4521C56.4706 5.21732 56.1072 5.09993 55.6761 5.09993C55.2197 5.09993 54.8352 5.23036 54.5224 5.49123C54.2097 5.73471 54.0533 6.0521 54.0533 6.44341C54.0533 6.76515 54.1759 7.04341 54.421 7.27819C54.6915 7.51297 55.2789 7.79123 56.1833 8.11297C57.1045 8.43471 57.7596 8.83036 58.1484 9.29993C58.5456 9.76079 58.7442 10.3304 58.7442 11.0086Z" fill="#A0A4AB"/>
<path d="M61.1117 4.1608V13.4999H59.9453V4.1608H61.1117Z" fill="#A0A4AB"/>
<path d="M65.2602 13.7086C64.3473 13.7086 63.5951 13.3869 63.0035 12.7434C62.4118 12.0999 62.116 11.2869 62.116 10.3043C62.116 9.33036 62.4034 8.52167 62.9781 7.87819C63.5528 7.22602 64.2882 6.89993 65.1841 6.89993C66.1054 6.89993 66.8365 7.20862 67.3774 7.82602C67.9268 8.43471 68.2015 9.29123 68.2015 10.3956L68.1888 10.526H63.3077C63.3246 11.1521 63.5275 11.6564 63.9163 12.0391C64.3051 12.4217 64.7699 12.613 65.3109 12.613C66.0546 12.613 66.6378 12.2304 67.0604 11.4651L68.1 11.9869C67.8211 12.526 67.4323 12.9477 66.9337 13.2521C66.4434 13.5564 65.8856 13.7086 65.2602 13.7086ZM63.3965 9.53471H66.959C66.9252 9.09123 66.7477 8.72601 66.4265 8.43906C66.1138 8.14341 65.6912 7.99558 65.1587 7.99558C64.7192 7.99558 64.3389 8.13471 64.0177 8.41297C63.705 8.69123 63.4979 9.06514 63.3965 9.53471Z" fill="#A0A4AB"/>
<path d="M72.1192 13.7086C71.2064 13.7086 70.4541 13.3869 69.8625 12.7434C69.2708 12.0999 68.975 11.2869 68.975 10.3043C68.975 9.33036 69.2624 8.52167 69.8371 7.87819C70.4119 7.22602 71.1472 6.89993 72.0431 6.89993C72.9644 6.89993 73.6955 7.20862 74.2364 7.82602C74.7858 8.43471 75.0605 9.29123 75.0605 10.3956L75.0478 10.526H70.1668C70.1837 11.1521 70.3865 11.6564 70.7753 12.0391C71.1641 12.4217 71.629 12.613 72.1699 12.613C72.9137 12.613 73.4969 12.2304 73.9195 11.4651L74.9591 11.9869C74.6801 12.526 74.2913 12.9477 73.7927 13.2521C73.3025 13.5564 72.7446 13.7086 72.1192 13.7086ZM70.2555 9.53471H73.818C73.7842 9.09123 73.6067 8.72601 73.2856 8.43906C72.9728 8.14341 72.5502 7.99558 72.0177 7.99558C71.5782 7.99558 71.1979 8.13471 70.8767 8.41297C70.564 8.69123 70.3569 9.06514 70.2555 9.53471Z" fill="#A0A4AB"/>
<path d="M79.1699 12.613C79.7277 12.613 80.1968 12.3956 80.5771 11.9608C80.9575 11.5347 81.1476 10.9825 81.1476 10.3043C81.1476 9.63471 80.9575 9.08254 80.5771 8.64776C80.1968 8.21297 79.7277 7.99558 79.1699 7.99558C78.6036 7.99558 78.1303 8.21297 77.7499 8.64776C77.378 9.08254 77.1921 9.63471 77.1921 10.3043C77.1921 10.9825 77.378 11.5391 77.7499 11.9738C78.1303 12.3999 78.6036 12.613 79.1699 12.613ZM79.36 13.7086C78.9036 13.7086 78.4852 13.6086 78.1049 13.4086C77.733 13.2086 77.4456 12.9434 77.2428 12.613H77.1921L77.2428 13.4999V16.3173H76.0764V7.10862H77.1921V7.99558H77.2428C77.4456 7.66515 77.733 7.39993 78.1049 7.19993C78.4852 6.99993 78.9036 6.89993 79.36 6.89993C80.1799 6.89993 80.8729 7.23036 81.4392 7.89123C82.0224 8.5608 82.314 9.36514 82.314 10.3043C82.314 11.2521 82.0224 12.0564 81.4392 12.7173C80.8729 13.3782 80.1799 13.7086 79.36 13.7086Z" fill="#A0A4AB"/>
<path d="M86.3709 13.4999V4.1608H89.1474C90.5335 4.1608 91.6449 4.59123 92.4817 5.4521C93.3269 6.31297 93.7495 7.43906 93.7495 8.83036C93.7495 10.2304 93.3269 11.3608 92.4817 12.2217C91.6449 13.0738 90.5335 13.4999 89.1474 13.4999H86.3709ZM87.5373 5.30862V12.3521H89.1474C90.2039 12.3521 91.0364 12.0434 91.6449 11.426C92.2535 10.7999 92.5578 9.93471 92.5578 8.83036C92.5578 7.73471 92.2535 6.87384 91.6449 6.24776C91.0364 5.62167 90.2039 5.30862 89.1474 5.30862H87.5373Z" fill="#A0A4AB"/>
<path d="M97.5372 13.7086C96.6244 13.7086 95.8721 13.3869 95.2805 12.7434C94.6888 12.0999 94.393 11.2869 94.393 10.3043C94.393 9.33036 94.6804 8.52167 95.2551 7.87819C95.8299 7.22602 96.5652 6.89993 97.4611 6.89993C98.3824 6.89993 99.1135 7.20862 99.6544 7.82602C100.204 8.43471 100.478 9.29123 100.478 10.3956L100.466 10.526H95.5847C95.6017 11.1521 95.8045 11.6564 96.1933 12.0391C96.5821 12.4217 97.047 12.613 97.5879 12.613C98.3317 12.613 98.9148 12.2304 99.3375 11.4651L100.377 11.9869C100.098 12.526 99.7093 12.9477 99.2107 13.2521C98.7205 13.5564 98.1626 13.7086 97.5372 13.7086ZM95.6735 9.53471H99.236C99.2022 9.09123 99.0247 8.72601 98.7036 8.43906C98.3908 8.14341 97.9682 7.99558 97.4357 7.99558C96.9962 7.99558 96.6159 8.13471 96.2947 8.41297C95.982 8.69123 95.7749 9.06514 95.6735 9.53471Z" fill="#A0A4AB"/>
<path d="M104.588 12.613C105.146 12.613 105.615 12.3956 105.995 11.9608C106.375 11.5347 106.566 10.9825 106.566 10.3043C106.566 9.63471 106.375 9.08254 105.995 8.64776C105.615 8.21297 105.146 7.99558 104.588 7.99558C104.022 7.99558 103.548 8.21297 103.168 8.64776C102.796 9.08254 102.61 9.63471 102.61 10.3043C102.61 10.9825 102.796 11.5391 103.168 11.9738C103.548 12.3999 104.022 12.613 104.588 12.613ZM104.778 13.7086C104.322 13.7086 103.903 13.6086 103.523 13.4086C103.151 13.2086 102.864 12.9434 102.661 12.613H102.61L102.661 13.4999V16.3173H101.494V7.10862H102.61V7.99558H102.661C102.864 7.66515 103.151 7.39993 103.523 7.19993C103.903 6.99993 104.322 6.89993 104.778 6.89993C105.598 6.89993 106.291 7.23036 106.857 7.89123C107.44 8.5608 107.732 9.36514 107.732 10.3043C107.732 11.2521 107.44 12.0564 106.857 12.7173C106.291 13.3782 105.598 13.7086 104.778 13.7086Z" fill="#A0A4AB"/>
<path d="M109.905 13.4999H108.738V7.10862H109.854V8.1521H109.905C110.023 7.81297 110.264 7.52602 110.627 7.29123C110.999 7.04776 111.363 6.92602 111.718 6.92602C112.056 6.92602 112.343 6.97819 112.58 7.08254L112.225 8.24341C112.081 8.18254 111.853 8.1521 111.54 8.1521C111.101 8.1521 110.716 8.33471 110.387 8.69993C110.065 9.06514 109.905 9.49123 109.905 9.97819V13.4999Z" fill="#A0A4AB"/>
<path d="M114.853 4.90428C114.853 5.13906 114.773 5.33906 114.612 5.50428C114.451 5.6695 114.257 5.7521 114.029 5.7521C113.801 5.7521 113.606 5.6695 113.446 5.50428C113.285 5.33906 113.205 5.13906 113.205 4.90428C113.205 4.6695 113.285 4.4695 113.446 4.30428C113.606 4.13906 113.801 4.05645 114.029 4.05645C114.257 4.05645 114.451 4.13906 114.612 4.30428C114.773 4.4695 114.853 4.6695 114.853 4.90428ZM114.612 7.10862V13.4999H113.446V7.10862H114.612Z" fill="#A0A4AB"/>
<path d="M119.147 13.4999H117.981L115.471 7.10862H116.738L118.564 12.0651H118.589L120.44 7.10862H121.683L119.147 13.4999Z" fill="#A0A4AB"/>
<path d="M125.048 13.7086C124.135 13.7086 123.382 13.3869 122.791 12.7434C122.199 12.0999 121.903 11.2869 121.903 10.3043C121.903 9.33036 122.191 8.52167 122.765 7.87819C123.34 7.22602 124.076 6.89993 124.971 6.89993C125.893 6.89993 126.624 7.20862 127.165 7.82602C127.714 8.43471 127.989 9.29123 127.989 10.3956L127.976 10.526H123.095C123.112 11.1521 123.315 11.6564 123.704 12.0391C124.092 12.4217 124.557 12.613 125.098 12.613C125.842 12.613 126.425 12.2304 126.848 11.4651L127.887 11.9869C127.609 12.526 127.22 12.9477 126.721 13.2521C126.231 13.5564 125.673 13.7086 125.048 13.7086ZM123.184 9.53471H126.746C126.713 9.09123 126.535 8.72601 126.214 8.43906C125.901 8.14341 125.479 7.99558 124.946 7.99558C124.507 7.99558 124.126 8.13471 123.805 8.41297C123.492 8.69123 123.285 9.06514 123.184 9.53471Z" fill="#A0A4AB"/>
<path d="M131.907 12.613C132.481 12.613 132.95 12.3999 133.314 11.9738C133.694 11.5478 133.884 10.9912 133.884 10.3043C133.884 9.63471 133.694 9.08254 133.314 8.64776C132.942 8.21297 132.473 7.99558 131.907 7.99558C131.349 7.99558 130.88 8.21297 130.499 8.64776C130.119 9.08254 129.929 9.63471 129.929 10.3043C129.929 10.9825 130.119 11.5347 130.499 11.9608C130.88 12.3956 131.349 12.613 131.907 12.613ZM131.716 13.7086C130.905 13.7086 130.208 13.3782 129.625 12.7173C129.05 12.0477 128.762 11.2434 128.762 10.3043C128.762 9.36514 129.05 8.5608 129.625 7.89123C130.208 7.23036 130.905 6.89993 131.716 6.89993C132.173 6.89993 132.587 6.99993 132.959 7.19993C133.339 7.39993 133.631 7.66515 133.834 7.99558H133.884L133.834 7.10862V4.1608H135V13.4999H133.884V12.613H133.834C133.631 12.9434 133.339 13.2086 132.959 13.4086C132.587 13.6086 132.173 13.7086 131.716 13.7086Z" fill="#A0A4AB"/>
</g>
</svg>
